PathFileType	4	(X/Y/Z)	s08c0103.trc
DataRate	CameraRate	NumFrames	NumMarkers	Units	OrigDataRate	OrigDataStartFrame	OrigNumFrames
200	200	4	50	mm	200	750	2000
Frame#	Time	racr			lacr			c7			jug			rlel			rdr			llel			ldr			s2			lic			ric			lasi			rasi			rpsi			lpsi			rgt			lgt			rth1			rth2			rth3			rth4			rlfc			rmfc			rsh1			rsh2			rsh3			rsh4			rlmal			rmmal			rcal			rtoe			rmt5			lth1			lth2			lth4			lth3			llfc			lmfc			llmal			lmmal			lcal			lmt5			lsh1			lsh2			lsh3			lsh4			ltoe			SBIKE			LBIKE			RBIKE			
		X1	Y1	Z1	X2	Y2	Z2	X3	Y3	Z3	X4	Y4	Z4	X5	Y5	Z5	X6	Y6	Z6	X7	Y7	Z7	X8	Y8	Z8	X9	Y9	Z9	X10	Y10	Z10	X11	Y11	Z11	X12	Y12	Z12	X13	Y13	Z13	X14	Y14	Z14	X15	Y15	Z15	X16	Y16	Z16	X17	Y17	Z17	X18	Y18	Z18	X19	Y19	Z19	X20	Y20	Z20	X21	Y21	Z21	X22	Y22	Z22	X23	Y23	Z23	X24	Y24	Z24	X25	Y25	Z25	X26	Y26	Z26	X27	Y27	Z27	X28	Y28	Z28	X29	Y29	Z29	X30	Y30	Z30	X31	Y31	Z31	X32	Y32	Z32	X33	Y33	Z33	X34	Y34	Z34	X35	Y35	Z35	X36	Y36	Z36	X37	Y37	Z37	X38	Y38	Z38	X39	Y39	Z39	X40	Y40	Z40	X41	Y41	Z41	X42	Y42	Z42	X43	Y43	Z43	X44	Y44	Z44	X45	Y45	Z45	X46	Y46	Z46	X47	Y47	Z47	X48	Y48	Z48	X49	Y49	Z49	X50	Y50	Z50	
750	3.7500	567.903859	1358.803114	-148.663483	535.928504	1380.650956	-436.873096	501.750284	1441.644254	-285.189487	496.674400	1280.813390	-295.413263	623.343084	1123.453590	-22.629292	803.493172	887.625182	-62.918520	580.589255	1108.769735	-510.645328	795.996593	918.093034	-430.038544	-47.149280	1221.054345	-220.071334	91.249562	1227.902546	-384.000210	132.407143	1220.489620	-75.266186	128.872408	1189.155316	-344.848109	146.488621	1162.859911	-110.544311	-11.296952	1260.177142	-167.308351	-21.538398	1269.328449	-259.843001	54.332429	1102.847421	-37.771698	55.327842	1127.014010	-417.323706	174.152604	982.067085	-37.841766	245.195879	928.420958	-42.865796	279.168537	848.631459	-45.751713	271.789269	949.934692	-55.788362	334.409636	748.464146	-56.258282	315.399167	737.000356	-164.854830	241.301813	655.082572	-25.488796	212.554343	572.138622	-47.319594	148.762781	515.104530	-51.654756	239.271451	560.013485	-74.473006	74.306391	420.841842	-59.262022	100.042547	428.824695	-146.404094	0.267277	444.619084	-108.551507	217.145849	237.468194	-102.791312	129.354547	276.415235	-37.320124	154.764590	1032.019775	-429.698571	234.531149	996.276497	-429.526513	257.207906	1023.372612	-419.163865	285.925702	923.785781	-432.208094	370.421366	820.532685	-410.092825	379.580242	795.828597	-303.319603	304.215324	403.841049	-401.207593	328.604317	428.115511	-315.217535	237.837690	366.839568	-361.947924	450.882550	346.316074	-423.683880	354.214432	691.596827	-430.674943	360.650016	607.865701	-412.447750	326.257397	527.429900	-411.928021	383.035957	608.794423	-379.680817	525.716270	392.645184	-356.472359	-186.275353	922.940572	-228.064808	5.255178	80.418879	-425.613204	4.483453	80.579986	-27.597748	
751	3.7550	567.161323	1359.231600	-147.759149	537.413436	1379.773254	-436.984153	501.759952	1441.457787	-285.275629	497.131229	1280.571266	-294.907497	622.260519	1123.174348	-23.197680	803.026592	888.135200	-63.391755	581.664845	1108.215835	-512.302204	795.870903	916.502389	-430.093929	-46.558548	1219.426944	-223.984913	93.246622	1224.906631	-388.253881	131.586944	1221.367809	-78.001179	130.608572	1186.283520	-348.498684	146.107675	1163.414150	-113.011783	-11.452301	1259.650899	-171.040233	-20.586475	1267.032549	-264.399487	55.319619	1103.852347	-39.865475	56.111254	1121.410812	-419.989117	177.005157	984.755034	-38.733165	248.983166	932.468751	-43.868551	284.536995	853.270922	-47.027091	275.177257	954.400296	-57.028865	341.436262	754.766569	-58.008408	322.088415	742.624836	-166.569496	246.702024	662.990356	-27.066107	216.410076	580.592061	-48.430252	151.555535	524.712331	-52.492866	243.126386	567.859169	-75.462953	75.318840	432.076296	-59.776851	101.271001	439.454889	-146.687113	1.521893	457.111103	-108.763475	215.348820	246.722662	-103.005556	128.159951	287.130565	-37.378711	154.501434	1024.302853	-431.425056	233.620532	987.220008	-431.124403	256.846448	1014.093799	-421.660259	283.783339	913.995853	-433.290271	366.945576	810.515806	-410.478077	375.400037	785.516202	-304.153727	305.818212	393.124084	-401.652831	330.080709	417.628719	-315.614811	239.660385	356.741414	-362.260134	452.732422	334.882395	-423.543112	351.887486	681.127894	-431.483672	359.586432	597.600183	-412.846229	326.340553	515.969741	-411.478948	381.863596	598.770206	-379.811209	527.752118	380.424856	-355.619860	-186.067827	922.833684	-228.828768	5.192759	80.175264	-425.558889	4.471629	80.391760	-27.728234	
752	3.7600	566.142005	1359.842230	-146.635077	538.766773	1378.789297	-436.915280	501.921750	1441.463109	-285.375213	497.053473	1280.525588	-294.086273	620.564465	1123.106392	-22.944216	802.493980	888.606276	-63.904044	583.353002	1107.827959	-514.082534	795.763723	913.615868	-428.980254	-45.969240	1217.924812	-228.159741	95.138002	1221.593199	-391.809255	130.680601	1222.217242	-81.102743	132.506456	1183.179165	-352.182330	145.671114	1164.080572	-115.385844	-11.848282	1259.154467	-175.561977	-19.555699	1264.839382	-269.366858	55.871680	1105.231405	-41.805597	57.120100	1115.629055	-422.557286	179.429775	987.255811	-39.318439	252.579944	936.604522	-44.494727	289.971937	858.167412	-48.153855	278.207667	958.966684	-57.886556	348.232949	761.184035	-59.938576	322.396708	751.247188	-173.562495	252.098230	671.182489	-28.684129	220.378083	589.044389	-49.744794	154.521837	534.490377	-53.445273	246.900069	575.787608	-76.593968	76.678289	443.535862	-60.328613	102.649270	450.193682	-147.057361	3.092740	469.397188	-109.026185	215.429297	257.221489	-102.064533	128.189882	298.350785	-37.117648	154.238180	1016.670466	-432.949265	232.620535	977.989580	-432.511093	256.587988	1004.857515	-424.508260	281.456231	903.893080	-433.662273	363.305332	800.331958	-410.572627	370.846164	775.086527	-304.851898	307.106828	382.429253	-401.902490	332.403306	408.137746	-317.372844	240.933131	346.768445	-362.517685	454.023577	323.239046	-423.174719	349.199490	670.536941	-431.858146	358.176136	587.078408	-412.999865	326.295195	504.889192	-411.189017	380.390567	588.924883	-380.042763	529.146115	368.291878	-355.427058	-185.950708	922.604560	-229.637187	5.158446	80.074378	-425.539743	4.396101	80.349128	-27.701848	
753	3.7650	565.057454	1360.690538	-144.903643	539.971068	1377.915359	-436.935488	502.042677	1441.517379	-285.397343	496.979040	1280.515850	-292.823152	618.363578	1122.848732	-22.209423	802.025510	889.123737	-64.292248	586.149900	1107.745624	-515.443001	795.918923	911.383038	-428.977756	-45.435691	1216.565911	-232.655774	97.629846	1218.520128	-395.908444	129.699972	1223.130746	-84.066274	134.349391	1180.062520	-355.814311	145.210603	1164.942305	-117.853591	-12.113888	1258.583889	-180.183245	-18.396003	1262.430863	-274.492140	56.229757	1106.858371	-43.872178	58.297312	1109.790659	-425.109759	181.444102	989.686772	-39.801581	255.783305	940.843427	-45.052851	294.282756	862.998828	-49.577330	280.836767	963.751530	-58.773528	354.870942	767.877835	-61.919628	328.866670	757.491949	-175.396223	257.537931	679.377394	-30.361079	224.524276	597.812296	-50.946885	157.728153	544.209953	-54.374250	250.452911	583.992115	-77.934015	78.167148	454.914283	-60.697582	104.193813	461.083777	-147.544790	4.771589	481.299127	-109.408189	215.051699	267.531108	-102.089308	128.240568	309.102554	-37.409279	153.827758	1008.956501	-434.540139	231.507370	968.825843	-433.822503	255.694643	995.154852	-426.082238	278.885342	893.817407	-433.901931	359.307340	789.977223	-410.665773	365.974369	764.704499	-305.405123	307.839659	371.782332	-402.035851	343.940557	406.392055	-330.706813	241.507919	336.977934	-362.760482	454.545402	311.557712	-422.921910	346.317061	659.931641	-431.688982	356.430417	576.796048	-413.040190	325.724417	494.094065	-411.133499	378.467147	578.836363	-379.967362	530.092484	356.180210	-355.241069	-189.346714	917.877222	-230.443487	5.135099	79.915901	-425.566839	4.319164	80.478153	-27.567151	
